<svg xmlns="http://www.w3.org/2000/svg" viewBox="0 0 64 64" role="img" aria-label="Cricket ball">
  <defs>
    <radialGradient id="cricketBody" cx="30%" cy="28%" r="70%">
      <stop offset="0%" stop-color="#ff8b7e"/>
      <stop offset="70%" stop-color="#c62828"/>
      <stop offset="100%" stop-color="#641313"/>
    </radialGradient>
  </defs>
  <rect width="64" height="64" fill="none"/>
  <circle cx="32" cy="32" r="26" fill="url(#cricketBody)"/>
  <circle cx="23" cy="21" r="10" fill="#ffffff" opacity="0.16"/>
  <path d="M28 9c-4 7-6 15-6 23 0 8 2 16 6 23" fill="none" stroke="#f7efe2" stroke-width="2.2" stroke-linecap="round"/>
  <path d="M31 9c-4 7-6 15-6 23 0 8 2 16 6 23" fill="none" stroke="#f7efe2" stroke-width="2.2" stroke-linecap="round"/>
  <path d="M34 9c4 7 6 15 6 23 0 8-2 16-6 23" fill="none" stroke="#f7efe2" stroke-width="2.2" stroke-linecap="round"/>
  <path d="M37 9c4 7 6 15 6 23 0 8-2 16-6 23" fill="none" stroke="#f7efe2" stroke-width="2.2" stroke-linecap="round"/>
</svg>
