<svg xmlns="http://www.w3.org/2000/svg" viewBox="0 0 64 64" role="img" aria-label="Football">
  <defs>
    <radialGradient id="footballBody" cx="30%" cy="28%" r="70%">
      <stop offset="0%" stop-color="#ffffff"/>
      <stop offset="72%" stop-color="#f0f0ec"/>
      <stop offset="100%" stop-color="#cfcfca"/>
    </radialGradient>
  </defs>
  <rect width="64" height="64" fill="none"/>
  <circle cx="32" cy="32" r="26" fill="url(#footballBody)"/>
  <circle cx="23" cy="21" r="10" fill="#ffffff" opacity="0.22"/>
  <polygon points="32,14 40,20 37,30 27,30 24,20" fill="#1b1b1b"/>
  <polygon points="17,23 24,20 27,30 21,36 14,32" fill="#1b1b1b"/>
  <polygon points="47,23 50,32 43,36 37,30 40,20" fill="#1b1b1b"/>
  <polygon points="21,36 27,30 37,30 43,36 32,47" fill="#1b1b1b"/>
  <path d="M24 20l-9 3M40 20l7 3M21 36l-5-4M43 36l5-4M32 47v-6" fill="none" stroke="#1b1b1b" stroke-width="1.8" stroke-linecap="round"/>
</svg>
